PathFileType	4	(X/Y/Z)	C:/Users/opensim2020/Desktop/walking_exp_matlab/subject01_walking11_straight_02.trc																																																																																																																																		
DataRate	CameraRate	NumFrames	NumMarkers	Units	OrigDataRate	OrigDataStartFrame	OrigNumFrames																																																																																																																														
100	100	7	44	mm	100	2173	266																																																																																																																														
Frame#	Time	LFHD			RFHD			LBHD			RBHD			C7			T10			CLAV			STRN			RBAK			LSHO			LUPA			LELB			LFRM			LWRA			LWRB			LFIN			RSHO			RUPA			RELB			RFRM			RWRA			RWRB			RFIN			LASI			RASI			LPSI			RPSI			LTHI			LKNE			LTIB			LANK			LHEE			LTOE			RTHI			RKNE			RTIB			RANK			RHEE			RTOE			*39			*40			*41			*42			*43		
		X1	Y1	Z1	X2	Y2	Z2	X3	Y3	Z3	X4	Y4	Z4	X5	Y5	Z5	X6	Y6	Z6	X7	Y7	Z7	X8	Y8	Z8	X9	Y9	Z9	X10	Y10	Z10	X11	Y11	Z11	X12	Y12	Z12	X13	Y13	Z13	X14	Y14	Z14	X15	Y15	Z15	X16	Y16	Z16	X17	Y17	Z17	X18	Y18	Z18	X19	Y19	Z19	X20	Y20	Z20	X21	Y21	Z21	X22	Y22	Z22	X23	Y23	Z23	X24	Y24	Z24	X25	Y25	Z25	X26	Y26	Z26	X27	Y27	Z27	X28	Y28	Z28	X29	Y29	Z29	X30	Y30	Z30	X31	Y31	Z31	X32	Y32	Z32	X33	Y33	Z33	X34	Y34	Z34	X35	Y35	Z35	X36	Y36	Z36	X37	Y37	Z37	X38	Y38	Z38	X39	Y39	Z39	X40	Y40	Z40	X41	Y41	Z41	X42	Y42	Z42	X43	Y43	Z43	X44	Y44	Z44
																																																																																																																																					
233	2.32	749.65289	1652.08337	970.14063	804.40637	1656.80811	1069.8418	640.85486	1618.90735	1024.40955	696.38782	1623.90027	1130.28003	602.1311	1418.61853	1059.00732	575.01678	1123.16846	1073.24963	748.23853	1353.73267	1046.20715	794.81897	1200.24866	1043.75977	557.93317	1222.61182	1143.99939	667.10211	1378.03918	890.36108	617.55389	1190.93835	820.12738	593.85461	1043.52563	830.16351	614.3916	932.40582	802.80847	677.013	806.04645	815.36566	619.50677	810.04431	795.84564	655.7702	732.55945	784.8454	691.9848	1385.43262	1201.24036	652.85681	1187.8418	1314.54688	664.64655	1063.15747	1324.5376	714.68933	953.65216	1358.45972	816.85052	855.62238	1341.12964	774.56952	848.06995	1380.92468	827.05719	779.7984	1379.69983	750.87927	919.72974	962.5282	750.78503	914.36426	1180.44788	563.19043	933.27631	1011.29413	565.08185	937.85712	1156.44507	785.44135	601.70502	907.36047	807.70087	471.79376	927.00476	795.22412	281.57327	918.69745	816.5741	65.35441	974.07129	780.80316	34.44933	1032.72449	960.88678	38.48082	957.7818	645.99896	587.81281	1228.83289	620.34106	427.27255	1205.573	498.58688	296.87921	1209.56641	386.53571	121.21651	1161.96533	326.91928	108.08053	1111.57751	499.31339	32.92095	1151.02734	788.82745	1691.4635	1051.7804	-1973.16589	1023.68909	3101.84521	-2012.60596	1022.06116	3140.25073	NaN	NaN	NaN	NaN	NaN	NaN
234	2.33	755.92786	1652.82397	967.64099	810.85516	1657.89478	1067.29358	647.35187	1619.28992	1022.21442	703.09467	1624.60962	1127.96167	609.41913	1418.79626	1057.09045	583.22968	1123.52917	1071.76855	755.30627	1354.47986	1044.03174	802.82849	1201.21228	1041.71777	565.77838	1223.02136	1142.16052	674.13873	1378.41162	888.27429	625.60815	1191.02161	818.2807	602.99707	1043.50171	828.31604	623.72913	932.55957	800.92969	686.88489	806.44769	813.46259	629.38898	810.17761	793.72998	665.76349	732.90161	782.92346	699.44781	1386.13574	1199.0293	659.85254	1188.53528	1312.04553	671.49402	1064.0033	1322.09924	720.57544	954.16193	1355.8866	821.79871	855.19611	1338.91895	779.35089	848.21674	1378.79272	831.16345	779.09973	1377.51611	759.28638	920.81915	960.73914	759.45575	914.92529	1178.54126	571.57062	934.04541	1010.27313	573.88239	938.13861	1155.42432	793.51642	602.42181	905.4845	815.01617	471.53723	925.90967	799.83978	281.22867	917.35889	817.87238	65.45804	973.93195	781.28375	34.76314	1032.41907	962.13623	37.1742	958.01379	657.17188	587.89276	1228.44873	631.96613	427.18332	1205.82117	506.68369	299.96655	1208.86865	391.29959	126.44282	1161.7605	332.02078	115.28177	1110.76379	499.85159	32.85889	1150.97803	794.98938	1692.38757	1049.17102	-1973.14441	1023.86316	3101.979	-2012.5271	1022.03967	3140.39673	NaN	NaN	NaN	NaN	NaN	NaN
235	2.34	762.11926	1653.66895	965.2359	817.28845	1659.04834	1064.70081	653.84283	1619.63513	1020.01593	709.82251	1625.27979	1125.60278	616.47552	1419.20679	1054.23511	591.26514	1123.9292	1070.29077	762.37396	1355.26587	1041.82129	810.75366	1202.17932	1039.75854	573.66168	1223.52856	1140.52344	681.26343	1378.86047	886.33337	633.73785	1191.26807	816.39893	611.70471	1043.68848	826.45093	633.24884	932.88147	798.98975	696.84247	806.99542	811.51715	639.26221	810.55493	791.8739	675.95337	733.26959	780.99518	706.94696	1387.09753	1196.8855	666.72845	1189.42505	1309.78516	678.21875	1064.95142	1319.61316	726.23975	954.85199	1353.81287	826.48517	854.62439	1336.52222	783.98035	848.01447	1376.42896	835.02673	778.52893	1375.24487	767.53058	921.99713	958.7243	768.01587	915.67377	1176.50586	579.87781	934.76593	1009.06714	582.44073	938.69434	1154.31787	801.12256	602.79486	903.88074	821.84839	471.25519	924.93207	804.55267	281.15543	916.37848	818.82062	65.56403	973.9704	781.63031	35.04709	1032.20959	963.34027	35.93476	958.46326	669.22089	587.52441	1227.22485	644.36969	426.98947	1206.37292	515.6839	303.09094	1208.29456	396.71243	132.35219	1161.75781	338.07681	123.12291	1109.90015	500.66284	33.08033	1150.7793	801.23651	1693.53809	1046.60022	-1973.13306	1023.71582	3101.95361	-2012.55505	1022.01678	3140.33789	NaN	NaN	NaN	NaN	NaN	NaN
236	2.35	768.36469	1654.40845	962.85205	823.71985	1660.16296	1062.11926	660.36621	1620.03394	1017.95502	716.56677	1625.97559	1123.33398	623.98267	1419.57874	1052.26563	599.29114	1124.41052	1068.78235	769.78491	1356.13489	1039.75085	818.50928	1203.05957	1037.8623	581.47528	1224.16309	1139.08276	688.44794	1379.43848	884.33545	641.76666	1191.62964	814.51166	620.59436	1044.04797	824.50067	642.73401	933.32343	796.99457	706.97864	807.70251	809.47931	649.33252	811.05542	789.96539	686.52631	733.88098	778.87207	714.32196	1388.06677	1194.94629	673.61328	1190.41138	1307.40381	684.87524	1065.93872	1317.13477	731.93048	955.46649	1351.36316	831.13367	854.1272	1334.20227	788.44965	847.98773	1374.07166	838.81976	777.8808	1372.85376	775.58789	923.04358	956.5849	776.27911	916.50012	1174.2937	588.05054	935.35138	1007.66486	590.82446	939.17645	1152.97156	807.99219	602.64282	902.64166	828.23602	471.00735	923.95935	809.47894	281.01141	915.79956	819.94745	65.57556	974.05707	781.98676	35.21136	1032.13489	964.47382	34.85555	958.81616	681.45508	587.42133	1226.75708	657.6153	426.73456	1207.19958	525.43304	306.60205	1208.09851	403.03333	138.17569	1161.41064	345.31528	131.22572	1108.70459	501.70032	32.97219	1150.32825	807.48834	1694.59851	1043.98682	-1973.0387	1023.70221	3102.05127	-2012.6615	1022.22992	3140.41943	NaN	NaN	NaN	NaN	NaN	NaN
237	2.36	774.5639	1655.21411	960.46088	830.13849	1661.25342	1059.57751	666.82959	1620.37268	1015.93524	723.27502	1626.71033	1121.20972	631.49017	1420.16809	1050.86035	607.03247	1124.93591	1067.15466	777.13782	1356.92236	1037.71533	826.22284	1203.93323	1035.88696	589.22699	1224.81836	1137.68628	695.6925	1380.02759	882.43127	649.81622	1192.09949	812.56305	630.14807	1044.4408	822.48724	652.2403	933.82892	795.00006	717.3653	808.62738	807.36115	659.66681	811.63263	787.68225	697.16718	734.60114	776.82532	721.86212	1388.8772	1192.74097	680.66699	1191.42151	1305.2981	691.41937	1066.92505	1314.68542	737.53094	955.95514	1348.71423	835.67859	853.65735	1331.88196	792.92554	848.14081	1372.0459	842.52594	777.1875	1370.43896	783.45691	924.03613	954.34888	784.42236	917.43304	1171.99548	596.08215	935.89453	1006.07825	599.18622	939.74109	1151.3645	814.36658	602.34247	901.43201	834.21429	470.74857	922.99323	814.14923	280.96259	915.35669	820.76013	65.45604	974.24731	782.23962	35.43822	1032.16443	965.45721	34.22823	958.99548	693.44122	587.55945	1227.04688	671.45685	426.55844	1208.13477	536.15967	310.11111	1208.1106	410.43295	144.08322	1161.16455	353.62201	139.43019	1107.44714	502.46371	32.91043	1149.87048	813.73639	1695.59082	1041.46509	-1973.3009	1023.72144	3101.85815	-2012.67615	1022.21881	3140.40039	NaN	NaN	NaN	NaN	NaN	NaN
238	2.37	780.69922	1655.85767	958.21088	836.474	1662.27271	1057.18274	673.2406	1620.63733	1013.96082	729.97797	1627.23523	1119.00525	638.67688	1420.79431	1048.76807	614.66174	1125.41797	1065.38025	784.44757	1357.68738	1035.76123	833.83685	1204.69849	1034.05969	596.98193	1225.42676	1136.24841	702.94336	1380.60645	880.57208	657.85529	1192.6582	810.51849	638.89789	1044.92761	820.49506	661.76959	934.38831	792.94659	727.87274	809.58813	805.164	670.09125	812.32062	785.74133	708.19592	735.41107	774.65887	729.33966	1389.71948	1190.80359	687.62714	1192.51147	1303.5564	697.97955	1067.81726	1312.23535	742.93024	956.58185	1346.70325	840.10785	853.10388	1329.54626	797.45758	848.16327	1369.59192	846.19855	776.44513	1367.94727	791.59003	924.69189	952.05402	792.21881	918.27625	1169.57703	603.9043	936.32635	1004.27667	607.5108	940.23151	1149.48889	820.19568	602.02814	900.09747	839.88367	470.51898	922.02344	818.2951	280.81497	915.13269	821.31824	65.58427	974.41638	782.56042	35.48893	1032.15051	966.08832	33.21212	959.12653	706.37579	587.09735	1226.23865	685.86908	426.37057	1209.08936	547.83728	313.16098	1208.13672	418.91898	149.95363	1160.95325	363.19998	147.69771	1106.37646	504.12891	33.30329	1149.36499	819.89771	1696.54395	1039.06042	-1973.24646	1023.6239	3101.85571	-2012.5343	1022.14282	3140.47827	NaN	NaN	NaN	NaN	NaN	NaN
239	2.38	786.79437	1656.53918	956.03217	842.81195	1663.23718	1054.80029	679.66962	1620.85925	1012.10352	736.61273	1627.90051	1117.16565	645.67419	1421.0675	1047.26855	622.17279	1125.96924	1063.50488	791.71289	1358.35791	1033.85522	841.33624	1205.43115	1032.20557	604.68506	1226.01563	1134.85278	710.27246	1381.16248	878.78186	665.89594	1193.19312	808.44586	647.1983	1045.11365	818.52026	671.34174	934.91046	790.76117	738.55072	810.6405	802.90271	680.79126	812.89868	783.38812	719.4425	736.29114	772.3584	736.85797	1390.43567	1188.81641	694.883	1193.44824	1301.72766	704.36841	1068.64746	1309.95654	748.3457	957.02765	1344.31055	844.57526	852.55774	1327.2002	801.83441	848.09747	1367.48291	849.7851	775.6087	1365.44373	798.77161	925.28442	949.92627	800.01874	919.21552	1167.26257	611.539	936.71613	1002.38922	615.14813	940.78839	1147.78687	825.51721	601.55853	898.73486	845.26624	470.20264	920.98389	821.69641	280.58356	914.84375	822.43726	65.98719	974.38922	782.53552	35.55613	1032.05444	967.02106	32.91398	959.01172	718.95612	586.93915	1226.05444	700.58472	426.33994	1209.84668	560.15479	316.31381	1208.20056	428.34338	155.63612	1161.03064	373.22607	155.74467	1105.86267	505.57394	33.3773	1148.47083	826.0307	1697.4873	1036.73401	-1973.20715	1023.65894	3102.06177	-2012.47754	1021.94354	3140.57373	NaN	NaN	NaN	NaN	NaN	NaN
